# xmcd
#
# Track frame offsets:
#	150
#	21017
#	35057
#	58522
#	78115
#	91012
#	115607
#	137522
#	151567
#	166740
#	191017
#	210415
#
# Disc length: 2953 seconds
#
# Revision: 1
# Processed by: cddbd v1.4PL0 Copyright (c) Steve Scherf et al.
# Submitted via: audiograbber 1.81.03
#
DISCID=800b870c
DTITLE=Mark Cook - The Promise Highway
DYEAR=1900
DGENRE=Blues
TTITLE0=The Promise Highway
TTITLE1=Another Year Goes Passing By
TTITLE2=Down With The Blues
TTITLE3=Mood Swing
TTITLE4=You  Can Take Away My Woman
TTITLE5=This Is My Life
TTITLE6=Bummin's My Profession
TTITLE7=Funk The Blues
TTITLE8=Don't You Ever Leave
TTITLE9=When The Blues Takes Hold Of Me
TTITLE10=The Bitter Truth
TTITLE11=Blues For A Rainy Day
EXTD=
EXTT0=
EXTT1=
EXTT2=
EXTT3=
EXTT4=
EXTT5=
EXTT6=
EXTT7=
EXTT8=
EXTT9=
EXTT10=
EXTT11=
PLAYORDER=
